<svg width="32" height="32" viewBox="0 0 32 32" fill="none" xmlns="http://www.w3.org/2000/svg">
<path d="M13.5312 23.39C9.40623 22.8738 6.5 19.8089 6.5 15.8407C6.5 14.2276 7.0625 12.4854 8 11.324C7.59373 10.2593 7.65623 8.00097 8.125 7.06539C9.375 6.90407 11.0625 7.58158 12.0625 8.51717C13.25 8.13002 14.5 7.93645 16.0312 7.93645C17.5625 7.93645 18.8125 8.13002 19.9375 8.48492C20.9062 7.58158 22.625 6.90407 23.875 7.06539C24.3125 7.93645 24.375 10.1948 23.9687 11.2917C24.9687 12.5177 25.5 14.163 25.5 15.8407C25.5 19.8089 22.5937 22.8092 18.4062 23.3577C19.4687 24.0674 20.1875 25.616 20.1875 27.3904V30.7458C20.1875 31.7135 20.9687 32.262 21.9062 31.8748C27.5625 29.6487 32 23.8093 32 16.5827C32 7.45254 24.8125 0 15.9687 0C7.125 0 0 7.4525 0 16.5827C0 23.7448 4.40623 29.681 10.3437 31.9072C11.1875 32.2296 12 31.6491 12 30.7781V28.197C11.5625 28.3906 11 28.5196 10.5 28.5196C8.4375 28.5196 7.21873 27.3582 6.34373 25.1966C6 24.3255 5.625 23.8093 4.90623 23.7126C4.53123 23.6803 4.40623 23.519 4.40623 23.3254C4.40623 22.9383 5.03123 22.6479 5.65623 22.6479C6.5625 22.6479 7.34373 23.2286 8.15623 24.4223C8.78123 25.3579 9.4375 25.7773 10.2187 25.7773C11 25.7773 11.5 25.487 12.2187 24.745C12.75 24.1965 13.1562 23.7126 13.5312 23.39Z" fill="white"/>
</svg>
